<svg xmlns="http://www.w3.org/2000/svg" version="1.1" xmlns:xlink="http://www.w3.org/1999/xlink" xmlns:svgjs="http://svgjs.dev/svgjs" width="1000" height="1000" viewBox="0 0 1000 1000"><rect width="1000" height="1000" fill="#ffffff"></rect><g transform="matrix(0.7,0,0,0.7,149.57575757575756,252.54999999999998)"><svg viewBox="0 0 396 280" data-background-color="#971fff" preserveAspectRatio="xMidYMid meet" height="707" width="1000" xmlns="http://www.w3.org/2000/svg" xmlns:xlink="http://www.w3.org/1999/xlink"><g id="tight-bounds" transform="matrix(1,0,0,1,0.2400000000000091,0)"><svg viewBox="0 0 395.52 280" height="280" width="395.52"><g><svg viewBox="0 0 395.52 280" height="280" width="395.52"><g><svg viewBox="0 0 395.52 280" height="280" width="395.52"><g><svg viewBox="0 0 395.52 280" height="280" width="395.52"><g><svg viewBox="0 0 395.52 280" height="280" width="395.52"><g transform="matrix(1,0,0,1,81.22880246045696,47.293586941235716)"><svg viewBox="0 0 233.06239507908606 185.41282611752857" height="185.41282611752857" width="233.06239507908606"><g><circle r="82" cx="116.53119753954303" cy="92.70641305876428" fill="#000000" data-fill-palette-color="accent"></circle><svg xmlns="http://www.w3.org/2000/svg" xmlns:xlink="http://www.w3.org/1999/xlink" version="1.1" x="34.95935926186291" y="34.95935926186291" viewBox="17.94014549255371 15.676501274108887 60.55419921875 68.5538330078125" enable-background="new 0 0 100 100" xml:space="preserve" height="115.49410759380275" width="163.14367655536023" class="icon-o-0" data-fill-palette-color="quaternary" id="o-0"><path fill="#7a26c1" d="M74.163 43.22c0 0 3.686-6.801 4.205-10.57 0.373-2.698 0.013-5.721-2.347-7.422l0.006-0.005c-7.601-7.291-18.334-10.715-28.754-9.19-8.808 1.289-16.893 6.092-22.295 13.159-5.525 7.228-7.965 16.516-6.719 25.527 1.219 8.823 5.961 16.949 12.991 22.408 13.169 10.227 32.394 9.32 44.546-2.134l-0.026-0.028c4.749-4.683 1.298-13.176-1.287-18.021C75.939 52.486 75.846 47.616 74.163 43.22M73.084 54.499c-0.689 3.178-2.229 6.177-4.445 8.559l-0.104 0.134c-1.294 1.957-4.643 0.782-6.307 0.053-2.902-1.271-5.494-3.271-7.749-5.473l-0.247-0.242c-2.205-2.209-4.05-4.683-5.238-7.013l0-0.001c1.324-2.602 3.173-4.946 5.23-7.006l0.307-0.3c2.017-1.968 4.292-3.738 6.815-5.008 1.738-0.875 4.439-2.035 6.362-1.072l0.147 0.131c0.237 0.207 0.454 0.424 0.661 0.661l0.223 0.25C72.733 42.531 74.335 48.733 73.084 54.499 72.936 55.183 73.738 51.483 73.084 54.499zM52.357 71.052c-14.792 0-27.279-9.816-31.333-23.288 0.639-9.004 5.275-17.434 12.492-22.845 7.814-5.86 18.15-7.735 27.532-4.998 3.149 0.918 6.148 2.339 8.856 4.19-6.273 0.825-12.13 4.727-16.881 8.68-5.729 4.768-10.867 10.658-14.146 17.394l-0.117 0.053c0.014 0.03 0.03 0.061 0.044 0.091-0.012 0.025-0.027 0.05-0.039 0.075 0.018 0.037 0.039 0.075 0.058 0.112h0.071c2.124 4.617 5.364 9.334 9.406 13.666l0.517 0.542c2.244 2.346 4.577 4.413 6.907 6.153C54.617 70.99 53.494 71.052 52.357 71.052zM74.796 66.342c0.442 2.39 0.51 5.82-2.003 7.125-2.164 1.124-5.022 0.401-7.174-0.386-5.621-2.059-10.542-6.15-14.632-10.428l-0.499-0.523c-3.453-3.701-6.284-7.687-8.267-11.614h4.549l0 0.001 0.206 0.432c1.288 2.691 3.307 5.456 5.837 7.991l0.321 0.314c2.565 2.505 5.556 4.763 8.916 6.079 2.535 0.993 6.294 1.673 8.106-0.971 1.084-1.174 1.983-2.457 2.739-3.803C73.728 62.402 74.427 64.35 74.796 66.342 75.11 68.041 74.602 65.292 74.796 66.342z" data-fill-palette-color="quaternary"></path></svg></g></svg></g><path d="M67.338 100.771C66.685 100.535 66.224 100.458 65.955 100.542 65.68 100.623 65.459 100.893 65.292 101.354V101.354L64.954 102.285 64.489 102.431 62.34 101.293 64.211 96.251C64.563 95.279 64.919 94.239 65.277 93.131 65.629 92.021 65.869 91.247 65.999 90.809V90.809L68.555 91.964C68.443 92.871 68.45 93.493 68.574 93.827 68.693 94.16 69.032 94.442 69.592 94.674V94.674L80.821 99.06C81.685 99.373 82.293 99.503 82.645 99.45 82.997 99.396 83.257 99.139 83.424 98.679V98.679C83.53 98.385 83.608 98.131 83.657 97.917 83.703 97.709 83.724 97.572 83.719 97.505V97.505L84.123 97.38 86.497 98.556C86.339 98.991 86.04 99.747 85.599 100.824 85.166 101.898 84.773 102.921 84.421 103.893V103.893C84.02 104.999 83.649 106.062 83.308 107.082 82.967 108.102 82.749 108.794 82.653 109.157V109.157L80.265 108.02C80.423 107.006 80.39 106.299 80.165 105.9 79.948 105.502 79.394 105.142 78.505 104.82V104.82ZM74.915 96.278L72.012 90.514C71.734 89.863 71.336 89.444 70.818 89.256V89.256C70.472 89.131 70.183 89.149 69.951 89.311 69.725 89.475 69.502 89.821 69.281 90.349V90.349L68.882 90.433 66.594 89.288C66.722 88.936 66.972 88.315 67.347 87.423 67.712 86.535 68.056 85.646 68.378 84.757V84.757C68.682 83.919 68.98 83.036 69.274 82.107 69.56 81.177 69.755 80.531 69.857 80.17V80.17L70.426 80.007 72.533 81.14C72.637 82.032 72.897 82.972 73.312 83.962 73.734 84.955 74.358 86.118 75.184 87.453V87.453L76.739 90.35 83.887 88.958C85.031 88.736 85.907 88.445 86.515 88.087 87.116 87.726 87.599 87.213 87.962 86.549V86.549L88.484 86.369 90.514 87.474C90.385 87.912 90.156 88.752 89.829 89.994 89.502 91.236 89.28 92.017 89.164 92.337V92.337C88.87 93.149 88.434 93.762 87.857 94.175 87.278 94.595 86.405 94.897 85.238 95.082V95.082L75.714 96.709ZM99.397 73.832C97.533 76.621 95.319 78.255 92.756 78.735 90.193 79.214 87.48 78.498 84.619 76.584V76.584C81.542 74.527 79.728 72.087 79.177 69.263 78.627 66.449 79.381 63.504 81.438 60.427V60.427C83.336 57.588 85.529 55.923 88.017 55.434 90.503 54.935 93.191 55.652 96.081 57.584V57.584C99.158 59.641 100.984 62.106 101.559 64.979 102.144 67.85 101.424 70.801 99.397 73.832ZM96.581 71.066C97.266 70.043 97.383 69.016 96.933 67.987 96.48 66.964 95.408 65.887 93.717 64.756V64.756C91.234 63.096 89.27 62.172 87.824 61.983 86.379 61.795 85.267 62.283 84.488 63.448V63.448C83.819 64.449 83.711 65.449 84.165 66.448 84.627 67.445 85.705 68.509 87.396 69.639V69.639C89.873 71.295 91.832 72.233 93.274 72.452 94.711 72.676 95.814 72.214 96.581 71.066ZM123.681 47.537C122.977 48.169 122.231 48.519 121.442 48.587 120.658 48.651 119.73 48.433 118.659 47.932V47.932L113.274 45.663 111.672 47.101 113.421 49.11C113.899 49.642 114.285 49.99 114.579 50.156 114.874 50.311 115.185 50.321 115.51 50.184 115.83 50.052 116.298 49.728 116.913 49.211V49.211L117.213 49.285 118.714 51.476C118.395 51.762 117.81 52.256 116.958 52.957 116.111 53.663 115.312 54.353 114.563 55.025V55.025C113.794 55.716 112.981 56.506 112.123 57.395 111.257 58.283 110.698 58.862 110.447 59.133V59.133L108.738 56.786C109.326 56.066 109.615 55.441 109.605 54.911 109.59 54.385 109.275 53.78 108.662 53.097V53.097L100.67 44.198C100.284 43.768 99.967 43.522 99.72 43.46 99.468 43.394 99.203 43.486 98.924 43.736V43.736L98.025 44.598 97.573 44.537 96.16 42.46 99.809 39.238C100.639 38.492 101.507 37.676 102.412 36.79 103.308 35.904 103.929 35.287 104.275 34.939V34.939C106.578 32.871 108.662 31.694 110.528 31.409 112.393 31.124 114.005 31.738 115.364 33.251V33.251C116.246 34.233 116.765 35.377 116.922 36.681 117.073 37.99 116.874 39.412 116.324 40.949V40.949L120.706 42.102C122.953 42.709 124.503 42.629 125.359 41.86V41.86L125.923 41.985 127.23 43.883ZM111.495 42.46C111.858 41.704 112.018 40.98 111.973 40.289 111.928 39.597 111.581 38.89 110.931 38.166V38.166C110.24 37.396 109.465 37.068 108.606 37.181 107.742 37.298 106.746 37.864 105.617 38.878V38.878C105.445 39.032 105.36 39.177 105.362 39.312 105.37 39.442 105.478 39.624 105.687 39.857V39.857C106.824 41.387 107.976 42.803 109.145 44.104V44.104ZM132.778 40.529L131.709 37.824C132.448 37.261 132.866 36.718 132.962 36.194 133.051 35.674 132.863 34.983 132.396 34.121V34.121L126.923 23.925C126.583 23.297 126.292 22.909 126.049 22.761 125.807 22.614 125.51 22.636 125.157 22.827V22.827L124.306 23.334 123.796 23.122 122.9 20.823C123.354 20.577 124.237 20.114 125.549 19.435 126.86 18.756 128.248 18.02 129.714 17.227V17.227C133.974 14.92 137.128 13.066 139.177 11.663V11.663L139.722 11.855C139.823 12.226 140.104 13.045 140.565 14.312 141.02 15.582 141.538 16.81 142.119 17.996V17.996L138.405 20.355C138.363 20.277 138.293 20.118 138.193 19.878 138.094 19.637 137.983 19.404 137.86 19.176V19.176C137.601 18.698 137.329 18.388 137.044 18.248 136.754 18.112 136.359 18.125 135.858 18.287 135.361 18.44 134.619 18.784 133.632 19.318V19.318C133.075 19.62 132.75 19.862 132.655 20.044 132.561 20.227 132.609 20.495 132.8 20.848V20.848L134.599 24.62 137.282 23.168C137.91 22.828 138.566 22.438 139.249 21.999 139.929 21.569 140.4 21.267 140.662 21.094V21.094L141.207 21.287 142.469 24.711C142.218 24.847 141.715 25.104 140.96 25.482 140.196 25.857 139.41 26.263 138.603 26.7V26.7C138.154 26.943 137.702 27.223 137.246 27.539 136.794 27.846 136.48 28.046 136.307 28.14V28.14C136.749 29.015 137.264 29.993 137.85 31.076V31.076C138.151 31.633 138.399 32.005 138.594 32.194 138.795 32.379 139.032 32.452 139.304 32.413 139.58 32.379 139.97 32.227 140.472 31.955V31.955C141.531 31.381 142.275 30.882 142.702 30.457 143.124 30.036 143.338 29.545 143.344 28.984 143.35 28.424 143.169 27.625 142.8 26.586V26.586L146.217 24.388 146.742 24.65C146.848 25.018 147.12 25.834 147.556 27.098 147.993 28.363 148.512 29.664 149.113 31.002V31.002L148.878 31.663C148.261 31.966 146.903 32.651 144.804 33.718 142.708 34.791 140.726 35.832 138.86 36.843V36.843C137.573 37.539 136.323 38.274 135.109 39.047 133.895 39.82 133.118 40.314 132.778 40.529ZM156.973 28.616L156.51 25.75C157.36 25.374 157.893 24.949 158.111 24.474 158.323 24.002 158.309 23.322 158.071 22.435V22.435L155.045 11.17C154.867 10.506 154.675 10.068 154.47 9.856 154.265 9.643 153.982 9.585 153.621 9.682V9.682L152.429 10.045 152.053 9.786 151.732 7.294 156.444 6.071C157.469 5.796 158.576 5.47 159.764 5.095 160.957 4.711 161.783 4.443 162.243 4.291V4.291C165.653 3.376 168.185 3.4 169.839 4.365 171.495 5.336 172.561 6.709 173.037 8.483V8.483C173.394 9.81 173.341 11.159 172.878 12.53 172.415 13.902 171.62 15.112 170.493 16.161 169.364 17.204 168.063 17.923 166.592 18.319V18.319L163.645 19.11 164.084 20.905C164.346 21.877 164.63 22.502 164.936 22.779 165.248 23.047 165.749 23.089 166.439 22.904V22.904C166.721 22.828 166.984 22.743 167.226 22.65 167.463 22.558 167.623 22.501 167.709 22.478V22.478L167.903 22.69 168.272 25.402C167.858 25.513 167.119 25.687 166.056 25.923 164.987 26.168 163.996 26.413 163.083 26.658V26.658C162.393 26.843 161.324 27.176 159.875 27.657 158.431 28.129 157.463 28.449 156.973 28.616ZM165.414 15.074C166.155 14.635 166.634 14.045 166.851 13.304 167.067 12.562 167.03 11.65 166.739 10.565V10.565C166.435 9.435 165.896 8.699 165.121 8.358 164.346 8.017 163.252 8.036 161.839 8.415V8.415C161.59 8.482 161.439 8.565 161.388 8.663 161.346 8.766 161.348 8.959 161.396 9.242V9.242C161.836 11.562 162.281 13.612 162.731 15.393V15.393ZM192.544 22.332L192.27 22.087 192.349 19.409C193.182 19.297 193.754 19.206 194.065 19.134 194.376 19.068 194.58 18.969 194.677 18.836 194.775 18.703 194.818 18.494 194.808 18.209V18.209C194.804 18.093 194.786 17.971 194.755 17.843 194.716 17.715 194.681 17.594 194.65 17.479V17.479L194.205 15.861C193.571 15.856 192.595 15.877 191.276 15.923V15.923C190.875 15.938 190.247 15.987 189.392 16.072V16.072C188.877 16.144 188.504 16.185 188.273 16.193V16.193L187.824 17.934C187.749 18.312 187.714 18.585 187.72 18.755V18.755C187.732 19.075 187.817 19.279 187.977 19.369 188.137 19.465 188.475 19.504 188.992 19.486V19.486L190.114 19.447 190.42 19.742 190.217 22.374C189.87 22.359 189.182 22.352 188.154 22.355 187.119 22.364 186 22.39 184.797 22.432V22.432L180.238 22.593 180.398 19.882C180.849 19.75 181.229 19.525 181.538 19.208 181.84 18.898 182.083 18.454 182.267 17.875V17.875L187.558 0.85 195.718 0 196.199 0.33C196.593 1.664 197.412 4.328 198.656 8.321 199.9 12.307 200.824 15.151 201.429 16.852V16.852C201.687 17.619 201.996 18.169 202.355 18.504 202.707 18.832 203.2 19.015 203.835 19.054V19.054L204.059 19.342 203.891 21.799 199.075 21.928C197.722 21.976 196.387 22.047 195.07 22.141 193.752 22.228 192.91 22.292 192.544 22.332ZM189.218 12.289L191.237 12.218C191.727 12.201 192.429 12.145 193.345 12.052V12.052L191.614 5.833 190.972 5.855ZM229.304 16.041L230.709 9.077C230.805 8.513 230.796 8.114 230.68 7.879 230.569 7.653 230.305 7.494 229.886 7.402V7.402L228.79 7.161 228.686 6.825 229.451 4.391C229.843 4.477 230.559 4.659 231.598 4.936 232.64 5.207 233.678 5.456 234.715 5.684V5.684C235.725 5.906 236.675 6.101 237.565 6.268 238.447 6.434 239.049 6.535 239.368 6.571V6.571L238.597 9.274C237.816 9.214 237.238 9.307 236.864 9.552 236.484 9.789 236.21 10.227 236.042 10.866V10.866L231.954 27.281 226.308 26.489C225.058 23.365 223.894 20.515 222.817 17.937 221.731 15.365 221.03 13.738 220.713 13.055V13.055L220.255 12.955 218.821 19.86C218.685 20.478 218.682 20.919 218.812 21.185 218.95 21.445 219.271 21.63 219.776 21.741V21.741C219.995 21.789 220.241 21.829 220.512 21.861 220.791 21.895 220.97 21.92 221.049 21.938V21.938L221.294 22.252 220.341 24.781C219.949 24.694 219.246 24.516 218.233 24.244 217.219 23.98 216.236 23.743 215.286 23.534V23.534C214.389 23.337 213.404 23.159 212.332 22.999 211.267 22.835 210.579 22.733 210.268 22.692V22.692L211.207 20.036C211.895 20.103 212.428 20.008 212.806 19.75 213.188 19.499 213.463 19.055 213.631 18.416V18.416L216.646 6.697C216.807 5.966 216.745 5.437 216.462 5.11 216.185 4.784 215.501 4.428 214.408 4.042V4.042L214.161 3.549 214.917 1.155C215.191 1.243 215.81 1.418 216.777 1.679 217.752 1.935 218.714 2.167 219.664 2.376V2.376C220.561 2.573 221.405 2.745 222.195 2.89 222.985 3.036 223.51 3.12 223.769 3.142V3.142C224.734 5.855 225.743 8.487 226.799 11.039 227.854 13.59 228.536 15.224 228.846 15.94V15.94ZM249.622 35.326C246.634 33.802 244.752 31.795 243.975 29.306 243.198 26.816 243.592 24.039 245.157 20.972V20.972C246.839 17.675 249.05 15.588 251.789 14.71 254.52 13.834 257.533 14.238 260.83 15.92V15.92C263.872 17.472 265.782 19.455 266.559 21.868 267.346 24.278 266.949 27.031 265.369 30.128V30.128C263.687 33.425 261.453 35.528 258.668 36.436 255.886 37.353 252.87 36.983 249.622 35.326ZM252.039 32.206C253.136 32.765 254.169 32.762 255.138 32.194 256.101 31.624 257.045 30.433 257.97 28.621V28.621C259.327 25.961 260.015 23.902 260.033 22.444 260.051 20.987 259.435 19.94 258.187 19.303V19.303C257.114 18.756 256.109 18.766 255.17 19.333 254.234 19.91 253.304 21.104 252.379 22.916V22.916C251.025 25.57 250.324 27.626 250.275 29.083 250.221 30.537 250.809 31.578 252.039 32.206ZM268.989 47.912C269.624 46.644 270.886 44.09 272.777 40.25 274.673 36.405 275.994 33.632 276.741 31.932V31.932C277.057 31.252 277.203 30.677 277.178 30.206 277.152 29.726 276.94 29.278 276.543 28.864V28.864L276.549 28.466 278.399 26.773C278.641 26.981 279.107 27.4 279.795 28.03 280.483 28.659 281.196 29.291 281.933 29.926V29.926C282.932 30.788 283.955 31.634 285 32.463 286.05 33.287 286.726 33.811 287.027 34.035V34.035L287.021 34.433 285.177 36.307C284.515 35.844 284.046 35.534 283.769 35.376 283.497 35.213 283.279 35.147 283.118 35.179 282.956 35.21 282.771 35.347 282.562 35.589V35.589C282.207 36.001 281.213 37.659 279.581 40.564 277.944 43.473 276.839 45.458 276.266 46.519V46.519L276.784 46.965C277.161 46.841 278.992 45.675 282.278 43.468 285.563 41.261 287.366 39.972 287.686 39.601V39.601C287.89 39.364 287.961 39.151 287.899 38.963 287.832 38.77 287.592 38.496 287.18 38.141V38.141L286.368 37.441 286.432 37.039 288.28 35.223C288.536 35.488 289.047 35.969 289.813 36.665 290.578 37.361 291.407 38.093 292.298 38.861V38.861L295.587 41.642 293.614 43.525C293.218 43.328 292.87 43.252 292.569 43.299 292.264 43.341 291.817 43.526 291.228 43.854V43.854L275.806 52.993ZM289.733 69.43C288.901 68.293 288.242 67.174 287.756 66.071 287.274 64.974 286.927 64.022 286.716 63.216 286.5 62.413 286.403 62.003 286.425 61.987V61.987L286.732 61.232C286.907 61.137 287.306 60.934 287.929 60.621 288.552 60.309 289.36 59.869 290.353 59.303 291.347 58.736 292.244 58.177 293.045 57.624V57.624L295.851 60.958C294.231 62.143 293.303 63.231 293.067 64.222 292.836 65.208 293.186 66.339 294.118 67.612V67.612C294.793 68.535 295.523 69.135 296.308 69.412 297.102 69.691 297.834 69.586 298.504 69.095V69.095C299.201 68.585 299.537 67.829 299.512 66.827 299.492 65.831 299.286 64.409 298.896 62.562V62.562C298.856 62.313 298.814 62.07 298.768 61.834 298.716 61.602 298.676 61.391 298.646 61.202V61.202C298.21 58.958 298.112 57.003 298.351 55.336 298.59 53.669 299.475 52.275 301.007 51.155V51.155C302.396 50.138 303.94 49.65 305.638 49.689 307.335 49.728 309.033 50.274 310.729 51.325 312.42 52.381 313.969 53.87 315.375 55.791V55.791C316.154 56.857 316.813 57.901 317.35 58.924 317.892 59.952 318.289 60.8 318.541 61.467 318.798 62.13 318.955 62.551 319.01 62.73V62.73L318.654 63.471C318.495 63.553 318.111 63.737 317.502 64.022 316.893 64.308 316.07 64.72 315.032 65.261 313.992 65.81 312.983 66.389 312.003 66.996V66.996L309.402 63.942 309.42 63.398 310.383 62.744C311.311 62.065 311.807 61.331 311.871 60.543 311.931 59.749 311.579 58.83 310.816 57.787V57.787C310.209 56.957 309.519 56.417 308.745 56.166 307.976 55.91 307.279 56.012 306.653 56.47V56.47C306.142 56.843 305.832 57.37 305.722 58.049 305.621 58.729 305.62 59.442 305.719 60.188 305.818 60.933 306.027 62.061 306.348 63.571V63.571C306.706 65.223 306.934 66.654 307.034 67.862 307.14 69.066 306.993 70.248 306.594 71.408 306.195 72.568 305.43 73.562 304.299 74.39V74.39C302.86 75.442 301.3 75.948 299.617 75.906 297.93 75.859 296.24 75.283 294.547 74.178 292.844 73.072 291.239 71.489 289.733 69.43ZM303.636 93.723C303.099 92.421 302.726 91.177 302.516 89.99 302.308 88.81 302.198 87.803 302.185 86.969 302.166 86.138 302.169 85.717 302.194 85.707V85.707L302.672 85.046C302.865 84.996 303.301 84.893 303.981 84.738 304.66 84.583 305.549 84.348 306.649 84.035 307.749 83.721 308.753 83.391 309.663 83.045V83.045L311.595 86.951C309.739 87.716 308.579 88.552 308.114 89.458 307.655 90.361 307.727 91.542 308.329 93.001V93.001C308.765 94.058 309.331 94.814 310.027 95.27 310.732 95.73 311.468 95.802 312.235 95.485V95.485C313.034 95.156 313.54 94.502 313.754 93.523 313.971 92.55 314.11 91.12 314.17 89.233V89.233C314.192 88.981 314.208 88.735 314.219 88.495 314.224 88.258 314.235 88.043 314.252 87.852V87.852C314.363 85.569 314.732 83.647 315.361 82.085 315.99 80.523 317.181 79.38 318.936 78.656V78.656C320.527 77.999 322.142 77.892 323.782 78.334 325.422 78.776 326.94 79.71 328.338 81.135 329.73 82.563 330.879 84.377 331.788 86.578V86.578C332.291 87.799 332.682 88.969 332.961 90.091 333.242 91.218 333.426 92.136 333.512 92.844 333.604 93.549 333.656 93.995 333.667 94.182V94.182L333.145 94.817C332.971 94.86 332.554 94.947 331.895 95.079 331.236 95.211 330.338 95.416 329.201 95.694 328.061 95.98 326.942 96.302 325.846 96.659V96.659L324.046 93.074 324.194 92.549 325.285 92.143C326.348 91.704 327.004 91.11 327.254 90.359 327.501 89.602 327.378 88.626 326.885 87.431V87.431C326.493 86.482 325.951 85.793 325.259 85.364 324.573 84.933 323.872 84.866 323.155 85.162V85.162C322.57 85.403 322.143 85.84 321.875 86.474 321.615 87.111 321.444 87.803 321.363 88.551 321.281 89.298 321.217 90.444 321.169 91.987V91.987C321.123 93.676 321.004 95.12 320.814 96.317 320.63 97.512 320.206 98.625 319.542 99.657 318.879 100.689 317.899 101.472 316.604 102.007V102.007C314.956 102.687 313.32 102.806 311.695 102.365 310.068 101.918 308.564 100.956 307.182 99.48 305.791 98.001 304.61 96.082 303.636 93.723ZM78.78 174.832C79.42 174.601 79.816 174.367 79.97 174.131 80.13 173.893 80.127 173.546 79.963 173.092V173.092L79.63 172.17 79.885 171.764 82.236 171.272 84.004 176.287C84.351 177.247 84.739 178.26 85.168 179.328 85.601 180.386 85.908 181.126 86.089 181.545V181.545L83.415 182.283C82.931 181.525 82.537 181.056 82.233 180.876 81.926 180.705 81.489 180.708 80.923 180.883V180.883L69.622 184.652C68.771 184.96 68.227 185.247 67.99 185.513 67.754 185.779 67.717 186.136 67.878 186.584V186.584C67.985 186.878 68.09 187.119 68.193 187.306 68.293 187.501 68.365 187.62 68.409 187.662V187.662L68.179 188.016 65.64 188.619C65.486 188.19 65.233 187.431 64.883 186.343 64.531 185.247 64.181 184.22 63.834 183.26V183.26C63.439 182.166 63.048 181.124 62.662 180.135 62.276 179.147 62.006 178.481 61.853 178.138V178.138L64.378 177.497C64.901 178.364 65.373 178.881 65.795 179.047 66.217 179.213 66.866 179.137 67.742 178.821V178.821ZM75.86 183.027L81.705 185.57C82.333 185.886 82.899 185.953 83.405 185.77V185.77C83.757 185.643 83.965 185.448 84.03 185.186 84.098 184.916 84.052 184.509 83.893 183.966V183.966L84.136 183.65 86.598 183.075C86.723 183.421 86.925 184.05 87.204 184.962 87.489 185.871 87.79 186.764 88.107 187.641V187.641C88.405 188.466 88.737 189.327 89.104 190.221 89.475 191.107 89.737 191.722 89.889 192.064V192.064L89.562 192.541 87.25 193.018C86.608 192.403 85.812 191.852 84.862 191.364 83.92 190.879 82.712 190.39 81.239 189.895V189.895L78.229 188.682 73.687 194.251C72.956 195.152 72.474 195.93 72.241 196.586 72.014 197.239 71.971 197.931 72.112 198.662V198.662L71.827 199.134 69.597 199.57C69.413 199.159 69.054 198.377 68.522 197.224 67.985 196.08 67.659 195.348 67.544 195.028V195.028C67.255 194.228 67.198 193.489 67.372 192.811 67.551 192.124 68.024 191.342 68.792 190.464V190.464L74.98 183.204ZM80.509 218.43C78.67 215.674 78.014 213.036 78.542 210.517 79.078 207.999 80.762 205.797 83.591 203.908V203.908C86.63 201.881 89.541 201.149 92.322 201.714 95.104 202.279 97.509 204.081 99.536 207.12V207.12C101.409 209.927 102.098 212.559 101.603 215.016 101.113 217.469 99.443 219.647 96.59 221.551V221.551C93.551 223.579 90.611 224.314 87.769 223.756 84.927 223.199 82.507 221.424 80.509 218.43ZM84.086 216.914C84.762 217.927 85.657 218.422 86.77 218.399 87.874 218.374 89.264 217.803 90.939 216.685V216.685C93.389 215.05 94.976 213.61 95.701 212.366 96.415 211.121 96.387 209.921 95.617 208.766V208.766C94.956 207.776 94.085 207.298 93.004 207.332 91.926 207.372 90.55 207.951 88.875 209.069V209.069C86.425 210.704 84.826 212.139 84.079 213.373 83.329 214.602 83.331 215.782 84.086 216.914ZM108.243 249.171C107.55 248.548 107.127 247.853 106.976 247.085 106.82 246.323 106.936 245.389 107.326 244.285V244.285L108.983 238.748 107.404 237.329 105.614 239.259C105.141 239.785 104.84 240.201 104.712 240.507 104.588 240.817 104.609 241.124 104.775 241.428 104.945 241.728 105.314 242.151 105.883 242.699V242.699L105.841 243.005 103.858 244.707C103.539 244.42 102.989 243.898 102.206 243.14 101.419 242.377 100.659 241.666 99.925 241.006V241.006C99.166 240.324 98.307 239.606 97.347 238.853 96.377 238.099 95.746 237.61 95.455 237.385V237.385L97.579 235.465C98.352 235.969 98.997 236.187 99.514 236.122 100.031 236.056 100.594 235.684 101.204 235.006V235.006L109.105 226.218C109.483 225.798 109.689 225.462 109.724 225.21 109.763 224.952 109.646 224.701 109.373 224.455V224.455L108.421 223.667 108.433 223.212 110.328 221.608 113.875 224.852C114.694 225.589 115.588 226.356 116.555 227.152 117.522 227.939 118.194 228.484 118.571 228.787V228.787C120.848 230.834 122.224 232.758 122.7 234.558 123.176 236.359 122.741 238.008 121.395 239.505V239.505C120.526 240.472 119.456 241.102 118.185 241.396 116.914 241.68 115.498 241.632 113.936 241.253V241.253L113.268 245.689C112.906 247.953 113.146 249.463 113.985 250.218V250.218L113.93 250.799 112.201 252.278ZM111.943 236.661C112.724 236.943 113.451 237.024 114.124 236.907 114.802 236.794 115.464 236.378 116.11 235.66V235.66C116.793 234.901 117.027 234.105 116.815 233.274 116.612 232.441 115.953 231.525 114.84 230.524V230.524C114.668 230.369 114.52 230.3 114.396 230.316 114.262 230.333 114.09 230.458 113.881 230.691V230.691C112.504 231.968 111.237 233.249 110.082 234.534V234.534ZM122.098 259.116L123.75 256.773C124.62 257.081 125.295 257.134 125.777 256.93 126.258 256.727 126.729 256.201 127.19 255.351V255.351L132.675 245.312C133.012 244.69 133.175 244.24 133.162 243.963 133.153 243.679 132.975 243.444 132.629 243.256V243.256L131.743 242.834 131.651 242.297 133.063 240.311C133.512 240.554 134.37 241.034 135.637 241.752 136.91 242.473 138.268 243.223 139.709 244.004V244.004C143.92 246.286 147.161 247.895 149.432 248.831V248.831L149.56 249.388C149.313 249.672 148.789 250.347 147.986 251.414 147.178 252.477 146.441 253.567 145.774 254.684V254.684L141.819 252.878C141.858 252.806 141.951 252.663 142.098 252.449 142.242 252.24 142.376 252.022 142.499 251.795V251.795C142.755 251.323 142.862 250.932 142.821 250.623 142.782 250.308 142.561 249.987 142.158 249.661 141.758 249.328 141.073 248.899 140.104 248.374V248.374C139.554 248.076 139.177 247.937 138.972 247.958 138.771 247.972 138.574 248.156 138.383 248.509V248.509L136.231 252.032 138.887 253.471C139.509 253.808 140.184 254.139 140.913 254.465 141.639 254.796 142.143 255.022 142.425 255.144V255.144L142.562 255.706 140.412 258.603C140.161 258.467 139.675 258.185 138.956 257.756 138.239 257.337 137.48 256.91 136.678 256.476V256.476C136.229 256.233 135.754 256.01 135.253 255.808 134.754 255.6 134.418 255.449 134.245 255.355V255.355C133.76 256.191 133.228 257.145 132.648 258.216V258.216C132.353 258.76 132.18 259.165 132.129 259.432 132.087 259.695 132.152 259.932 132.325 260.141 132.507 260.348 132.846 260.586 133.342 260.855V260.855C134.389 261.422 135.201 261.766 135.779 261.885 136.356 262.004 136.878 261.92 137.344 261.631 137.814 261.335 138.381 260.753 139.046 259.883V259.883L142.695 261.523 142.777 262.101C142.524 262.382 141.994 263.047 141.186 264.095 140.378 265.143 139.58 266.273 138.791 267.487V267.487L138.119 267.656C137.534 267.308 136.233 266.553 134.216 265.391 132.202 264.238 130.271 263.161 128.422 262.159V262.159C127.154 261.472 125.874 260.836 124.581 260.252 123.285 259.658 122.458 259.28 122.098 259.116ZM151.246 272.9L152.28 270.229C153.191 270.326 153.855 270.226 154.273 269.93 154.691 269.633 155.018 269.045 155.254 268.164V268.164L158.243 257.037C158.419 256.38 158.471 255.911 158.398 255.631 158.327 255.344 158.115 255.153 157.76 255.058V255.058L156.554 254.787 156.358 254.375 157.321 252.087 161.953 253.373C162.965 253.645 164.072 253.914 165.276 254.181 166.487 254.443 167.327 254.623 167.794 254.72V254.72C171.165 255.625 173.319 256.901 174.258 258.548 175.19 260.193 175.421 261.89 174.951 263.638V263.638C174.598 264.952 173.887 266.081 172.816 267.027 171.738 267.97 170.457 268.609 168.972 268.943 167.488 269.277 166.023 269.249 164.577 268.861V268.861L161.66 268.078 161.144 269.841C160.888 270.794 160.825 271.464 160.953 271.851 161.082 272.237 161.488 272.522 162.171 272.706V272.706C162.447 272.78 162.713 272.837 162.97 272.878 163.22 272.917 163.388 272.948 163.474 272.971V272.971L163.526 273.249 162.507 275.744C162.093 275.633 161.372 275.418 160.345 275.1 159.317 274.782 158.35 274.501 157.443 274.258V274.258C156.76 274.074 155.681 273.827 154.208 273.516 152.733 273.211 151.746 273.006 151.246 272.9ZM165.163 265.5C166.016 265.496 166.718 265.231 167.269 264.702 167.826 264.175 168.247 263.38 168.533 262.315V262.315C168.835 261.192 168.738 260.292 168.243 259.617 167.749 258.942 166.805 258.417 165.412 258.043V258.043C165.162 257.976 164.994 257.973 164.907 258.034 164.812 258.1 164.714 258.268 164.613 258.537V258.537C163.847 260.733 163.216 262.705 162.718 264.452V264.452ZM191.809 279.742L191.563 279.478 191.828 276.853C192.647 276.793 193.214 276.741 193.529 276.698 193.843 276.647 194.054 276.563 194.16 276.444 194.26 276.318 194.315 276.112 194.325 275.827V275.827C194.329 275.718 194.319 275.598 194.296 275.468 194.274 275.338 194.251 275.215 194.228 275.098V275.098L193.896 273.473C193.278 273.425 192.317 273.378 191.011 273.332V273.332C190.617 273.318 189.994 273.324 189.142 273.349V273.349C188.63 273.392 188.258 273.41 188.027 273.402V273.402L187.458 275.077C187.364 275.441 187.314 275.709 187.308 275.879V275.879C187.297 276.191 187.368 276.401 187.521 276.509 187.674 276.609 188.005 276.669 188.515 276.686V276.686L189.617 276.725 189.902 277.041 189.516 279.621C189.177 279.575 188.498 279.521 187.479 279.458 186.46 279.396 185.356 279.344 184.166 279.302V279.302L179.658 279.145 180.006 276.482C180.466 276.382 180.857 276.188 181.18 275.9 181.503 275.619 181.773 275.196 181.99 274.631V274.631L188.392 258.22 196.479 257.95 196.936 258.313C197.23 259.651 197.851 262.331 198.8 266.353 199.757 270.369 200.474 273.236 200.952 274.955V274.955C201.15 275.724 201.413 276.284 201.741 276.636 202.069 276.988 202.545 277.206 203.168 277.288V277.288L203.372 277.592 203.033 280 198.271 279.793C196.939 279.747 195.622 279.722 194.322 279.717 193.015 279.719 192.177 279.728 191.809 279.742ZM189.221 269.614L191.22 269.684C191.703 269.7 192.397 269.694 193.304 269.664V269.664L192.041 263.412 191.398 263.389ZM229.592 265.053L227.964 258.232C227.816 257.687 227.643 257.331 227.446 257.166 227.251 257.007 226.944 256.973 226.526 257.065V257.065L225.449 257.303 225.216 257.051 224.885 254.553C225.277 254.467 225.997 254.333 227.043 254.151 228.089 253.962 229.123 253.755 230.146 253.53V253.53C231.143 253.31 232.073 253.091 232.938 252.873 233.809 252.653 234.39 252.494 234.682 252.395V252.395L235.118 255.131C234.392 255.409 233.91 255.735 233.671 256.108 233.438 256.472 233.375 256.977 233.483 257.623V257.623L236.629 274.036 231.24 275.662C228.821 273.381 226.595 271.311 224.563 269.453 222.524 267.596 221.22 266.424 220.653 265.936V265.936L220.195 266.037 221.774 272.826C221.909 273.437 222.09 273.833 222.318 274.012 222.547 274.199 222.91 274.237 223.409 274.127V274.127C223.635 274.078 223.874 274.007 224.125 273.917 224.385 273.832 224.555 273.781 224.635 273.763V273.763L224.979 273.949 225.176 276.601C224.791 276.686 224.089 276.82 223.07 277.002 222.045 277.187 221.064 277.382 220.127 277.588V277.588C219.243 277.783 218.287 278.028 217.259 278.325 216.239 278.626 215.578 278.824 215.279 278.918V278.918L215.022 276.142C215.669 275.916 216.107 275.611 216.336 275.226 216.571 274.84 216.632 274.325 216.518 273.681V273.681L214.367 261.928C214.208 261.204 213.935 260.756 213.548 260.583 213.161 260.404 212.397 260.367 211.256 260.471V260.471L210.837 260.135 210.515 257.677C210.8 257.642 211.429 257.542 212.403 257.376 213.382 257.203 214.343 257.012 215.287 256.804V256.804C216.17 256.609 216.998 256.413 217.769 256.215 218.534 256.019 219.039 255.876 219.284 255.787V255.787C221.271 257.816 223.266 259.759 225.271 261.616 227.274 263.467 228.565 264.645 229.143 265.152V265.152ZM259.982 264.586C257.032 266.094 254.336 266.44 251.895 265.625 249.456 264.8 247.463 262.873 245.915 259.844V259.844C244.253 256.591 243.863 253.616 244.746 250.918 245.629 248.221 247.697 246.041 250.95 244.378V244.378C253.955 242.842 256.649 242.463 259.032 243.239 261.412 244.009 263.383 245.921 264.943 248.974V248.974C266.606 252.228 266.996 255.233 266.113 257.992 265.231 260.75 263.187 262.948 259.982 264.586ZM258.891 260.858C259.975 260.303 260.57 259.472 260.676 258.364 260.779 257.264 260.372 255.818 259.456 254.025V254.025C258.115 251.402 256.869 249.658 255.717 248.795 254.563 247.941 253.368 247.83 252.132 248.462V248.462C251.072 249.003 250.496 249.813 250.405 250.891 250.32 251.966 250.736 253.4 251.652 255.193V255.193C252.993 257.817 254.233 259.57 255.373 260.455 256.506 261.343 257.679 261.477 258.891 260.858ZM284.018 249.039C282.871 248.232 280.558 246.625 277.077 244.219 273.597 241.813 271.08 240.122 269.526 239.144V239.144C268.914 238.738 268.373 238.513 267.904 238.469 267.434 238.425 266.963 238.566 266.491 238.893V238.893L266.104 238.836 264.728 236.775C264.96 236.575 265.435 236.183 266.153 235.598 266.866 235.019 267.588 234.413 268.319 233.782V233.782C269.308 232.928 270.281 232.051 271.239 231.152 272.198 230.243 272.808 229.658 273.068 229.397V229.397L273.454 229.454 275.017 231.529C274.478 232.112 274.108 232.526 273.906 232.772 273.705 233.018 273.611 233.221 273.623 233.381 273.63 233.545 273.736 233.746 273.941 233.983V233.983C274.292 234.39 275.771 235.603 278.378 237.621 280.984 239.64 282.761 241.005 283.707 241.716V241.716L284.225 241.269C284.152 240.883 283.275 238.925 281.594 235.397 279.913 231.868 278.917 229.924 278.605 229.563V229.563C278.401 229.326 278.201 229.225 278.005 229.259 277.814 229.298 277.515 229.493 277.109 229.845V229.845L276.305 230.538 275.916 230.416 274.411 228.345C274.711 228.13 275.257 227.7 276.047 227.054 276.837 226.407 277.672 225.704 278.553 224.943V224.943L281.739 222.137 283.293 224.328C283.05 224.691 282.924 225.024 282.916 225.328 282.914 225.627 283.032 226.086 283.271 226.707V226.707L289.972 243.115ZM308.335 223.713C307.513 224.84 306.657 225.794 305.766 226.577 304.877 227.368 304.086 227.986 303.391 228.431 302.705 228.874 302.349 229.086 302.321 229.066V229.066L301.525 229.015C301.381 228.877 301.069 228.56 300.587 228.066 300.106 227.572 299.45 226.941 298.619 226.175 297.79 225.419 296.993 224.745 296.228 224.154V224.154L298.521 220.508C300.121 221.675 301.423 222.221 302.429 222.146 303.43 222.068 304.389 221.399 305.307 220.14V220.14C305.977 219.223 306.325 218.352 306.353 217.53 306.37 216.709 306.047 216.056 305.381 215.571V215.571C304.694 215.07 303.886 214.977 302.957 215.293 302.018 215.61 300.74 216.232 299.122 217.157V217.157C298.896 217.27 298.682 217.384 298.481 217.498 298.27 217.614 298.082 217.716 297.916 217.806V217.806C295.932 218.885 294.12 219.563 292.478 219.839 290.837 220.116 289.26 219.703 287.749 218.6V218.6C286.38 217.602 285.458 216.297 284.982 214.687 284.506 213.077 284.511 211.316 284.995 209.404 285.475 207.488 286.408 205.58 287.795 203.678V203.678C288.561 202.628 289.348 201.694 290.155 200.877 290.958 200.065 291.634 199.438 292.183 198.996 292.733 198.555 293.082 198.284 293.232 198.182V198.182L294.046 198.296C294.167 198.418 294.451 198.722 294.897 199.207 295.348 199.697 295.988 200.349 296.817 201.164 297.646 201.979 298.492 202.752 299.356 203.484V203.484L297.262 206.857 296.743 206.997 295.844 206.29C294.926 205.62 294.085 205.377 293.32 205.56 292.558 205.738 291.801 206.343 291.047 207.376V207.376C290.446 208.201 290.144 209.012 290.143 209.811 290.137 210.616 290.442 211.242 291.058 211.691V211.691C291.563 212.06 292.151 212.19 292.82 212.08 293.491 211.98 294.162 211.771 294.833 211.451 295.504 211.132 296.501 210.596 297.824 209.844V209.844C299.276 209.008 300.555 208.362 301.663 207.907 302.764 207.447 303.921 207.23 305.132 207.255 306.344 207.279 307.51 207.701 308.631 208.519V208.519C310.049 209.553 310.991 210.871 311.456 212.474 311.921 214.076 311.888 215.841 311.357 217.77 310.826 219.698 309.819 221.68 308.335 223.713ZM324.897 194.575C324.367 195.865 323.763 196.996 323.084 197.968 322.41 198.948 321.788 199.737 321.219 200.335 320.659 200.928 320.363 201.219 320.331 201.206V201.206L319.546 201.346C319.373 201.246 318.995 201.013 318.409 200.648 317.824 200.283 317.036 199.827 316.047 199.281 315.061 198.744 314.127 198.279 313.244 197.887V197.887L314.602 193.8C316.433 194.552 317.829 194.772 318.788 194.46 319.741 194.145 320.513 193.267 321.105 191.826V191.826C321.537 190.775 321.668 189.847 321.498 189.042 321.32 188.241 320.85 187.684 320.089 187.371V187.371C319.302 187.048 318.495 187.15 317.668 187.678 316.831 188.21 315.738 189.118 314.387 190.402V190.402C314.195 190.566 314.014 190.727 313.846 190.886 313.669 191.049 313.51 191.193 313.37 191.319V191.319C311.701 192.841 310.102 193.931 308.574 194.59 307.046 195.25 305.416 195.224 303.685 194.513V194.513C302.118 193.87 300.912 192.823 300.066 191.372 299.22 189.921 298.805 188.21 298.82 186.238 298.83 184.263 299.281 182.187 300.176 180.01V180.01C300.669 178.808 301.211 177.713 301.8 176.727 302.386 175.747 302.893 174.977 303.322 174.418 303.75 173.858 304.025 173.511 304.146 173.377V173.377L304.964 173.294C305.111 173.383 305.459 173.611 306.007 173.976 306.562 174.344 307.339 174.825 308.338 175.419 309.337 176.013 310.344 176.562 311.357 177.067V177.067L310.127 180.842 309.657 181.101 308.615 180.629C307.564 180.197 306.689 180.162 305.989 180.522 305.292 180.875 304.701 181.644 304.215 182.827V182.827C303.827 183.771 303.728 184.631 303.917 185.407 304.103 186.19 304.548 186.726 305.253 187.015V187.015C305.832 187.253 306.434 187.239 307.058 186.973 307.685 186.716 308.287 186.352 308.862 185.883 309.438 185.413 310.278 184.655 311.385 183.609V183.609C312.596 182.451 313.684 181.519 314.651 180.813 315.611 180.104 316.683 179.618 317.865 179.353 319.048 179.088 320.281 179.22 321.565 179.747V179.747C323.188 180.414 324.417 181.47 325.25 182.915 326.083 184.361 326.472 186.083 326.416 188.083 326.36 190.082 325.853 192.246 324.897 194.575ZM64.354 139.894C64.354 138.108 65.802 136.659 67.589 136.659 69.375 136.659 70.824 138.108 70.824 139.894 70.824 141.681 69.375 143.129 67.589 143.129 65.802 143.129 64.354 141.681 64.354 139.894ZM321.53 139.894C321.53 138.108 322.979 136.659 324.765 136.659 326.552 136.659 328 138.108 328 139.894 328 141.681 326.552 143.129 324.765 143.129 322.979 143.129 321.53 141.681 321.53 139.894Z" fill="#000000" data-fill-palette-color="primary"></path></svg></g></svg></g></svg></g><g></g></svg></g><defs></defs></svg><rect width="395.52" height="280" fill="none" stroke="none" visibility="hidden"></rect></g></svg></g></svg>